<?xml version="1.0" encoding="UTF-8" standalone="no"?>
<!DOCTYPE svg PUBLIC "-//W3C//DTD SVG 1.1//EN" "http://www.w3.org/Graphics/SVG/1.1/DTD/svg11.dtd">
<svg width="100%" height="100%" viewBox="0 0 1141 1141" version="1.1" xmlns="http://www.w3.org/2000/svg" xmlns:xlink="http://www.w3.org/1999/xlink" xml:space="preserve" xmlns:serif="http://www.serif.com/" style="fill-rule:evenodd;clip-rule:evenodd;stroke-linejoin:round;stroke-miterlimit:2;">
    <g transform="matrix(1,0,0,1,-29.896,-29.9327)">
        <g transform="matrix(12.6964,0,2.33608e-31,-12.6964,-33.5858,1214.5)">
            <path d="M91.4,65.9C89.1,71.3 85.9,76.1 81.8,80.2C77.7,84.3 72.9,87.6 67.5,89.8C61.9,92.1 56,93.3 49.9,93.3C43.8,93.3 37.9,92.1 32.4,89.8C27,87.5 22.2,84.3 18.1,80.2C14,76.1 10.7,71.3 8.5,65.9C6.2,60.4 5,54.5 5,48.4C5,42.3 6.2,36.4 8.5,30.9C10.8,25.5 14,20.7 18.1,16.6C22.2,12.5 27,9.2 32.4,7C37.9,4.7 43.8,3.5 49.9,3.5C56,3.5 61.9,4.7 67.4,7C72.8,9.3 77.6,12.5 81.7,16.6C85.8,20.7 89.1,25.5 91.3,30.9C93.6,36.4 94.8,42.3 94.8,48.4C94.9,54.4 93.7,60.3 91.4,65.9ZM92,49.5L85.4,41.7C85.2,41.8 85,41.8 84.7,41.8L84.5,41.8L72.6,70.6C72.9,70.8 73.2,71.2 73.4,71.5L86.7,68.7C89.9,63 91.8,56.5 92,49.5ZM73.1,13.2C71.5,12.2 69.9,11.2 68.2,10.4L68.8,11.6L68.9,11.6C69.8,11.6 70.6,12.2 70.9,13L73.1,13.2ZM36.8,22.6L36.8,23L61.4,35.8C61.8,35.3 62.4,35 63.1,35L63.2,35L68.2,15.8C67.4,15.5 66.9,14.9 66.8,14.1L36.8,22.6ZM7.9,51.1L34.6,52L34.6,51.6L20.5,41.3C20.1,41.6 19.6,41.8 19,41.8C18.5,41.8 18.1,41.6 17.7,41.4L7.8,50.7C7.9,50.8 7.9,51 7.9,51.1ZM14.3,70.7L38.9,74.2C39.1,73.6 39.6,73.1 40.2,72.9L37.5,54.2C37.3,54.3 37.1,54.3 36.9,54.3C36.5,54.3 36.1,54.2 35.7,54L14.1,70.4C14.1,70.5 14.2,70.6 14.3,70.7ZM66.7,87L70.4,74.3C69.9,74 69.5,73.6 69.3,73L43,75.2C43,75.3 43,75.4 42.9,75.6L65.5,87.5C65.9,87.3 66.3,87.1 66.7,87ZM65.1,37.9C64.9,38.6 64.3,39.1 63.6,39.3L64.7,58.8C65,58.8 65.3,59 65.6,59.1L83.3,41.2C83.1,41 82.9,40.7 82.8,40.4L65.1,37.9ZM34.7,24.9L33.4,32.6C34.2,32.9 34.7,33.6 34.8,34.5L60.9,36.6L36.5,23.8C36.2,24.4 35.5,24.9 34.7,24.9ZM69.3,72.1C69.4,71.6 69.6,71.1 70,70.8L65.1,63C64.9,63.1 64.6,63.1 64.4,63.1C63.8,63.1 63.2,62.8 62.8,62.4L42.9,74.2L42.9,74.3L69.3,72.1ZM34.7,35.3C34.5,35.9 34.1,36.3 33.5,36.6L36.5,49.9L36.8,49.9C37.6,49.9 38.3,50.3 38.6,50.9L60.9,37.9C60.9,37.8 60.8,37.6 60.8,37.5L34.7,35.3ZM62.7,39.3C62.2,39.2 61.7,39 61.4,38.6L39,51.7L39,52L62.5,59.8C62.8,59.3 63.3,58.9 63.8,58.8L62.7,39.3ZM41,72.8C41.6,72.8 42.1,73.1 42.5,73.5L62.3,61.7C62.2,61.5 62.2,61.2 62.2,61L62.2,60.7L38.8,53C38.7,53.3 38.5,53.6 38.2,53.8L41,72.8ZM35.7,50.2L32.7,36.8C32,36.8 31.3,36.4 30.9,35.9L21.2,39.4L21.2,39.7C21.2,40 21.1,40.3 21,40.6L35,50.9C35.2,50.6 35.4,50.4 35.7,50.2ZM19.4,37.5C20,37.6 20.5,38 20.9,38.5L30.5,35L30.5,34.6C30.5,34.1 30.6,33.7 30.9,33.4L19.1,19.9L19.4,37.5ZM66.1,59.7C66.3,60 66.5,60.5 66.5,60.9C66.5,61.5 66.2,62.1 65.8,62.5L70.7,70.3C70.9,70.2 71.2,70.2 71.4,70.2L71.8,70.2L83.4,42.1L66.1,59.7ZM18,37.8C18.2,37.7 18.4,37.6 18.6,37.6L18.3,20.7C15.7,23.6 13.6,26.9 11.9,30.5L18,37.8ZM19.8,19C19.7,19.1 19.7,19.1 19.6,19.2L31.5,32.8C31.8,32.6 32.2,32.5 32.6,32.5L33.9,24.8C33.1,24.5 32.5,23.7 32.5,22.8L32.5,22.5L19.8,19ZM69.9,15.6C69.6,15.8 69.3,15.8 69,15.9L64,35.2C64.7,35.5 65.2,36.2 65.2,37L82.6,39.4C82.6,38.9 82.8,38.5 83.1,38.2L69.9,15.6ZM86.2,69.8L73.6,72.4C73.6,73.6 72.6,74.6 71.4,74.6L71.2,74.6L67.7,86.6C75.4,82.9 81.8,77 86.2,69.8ZM64.4,87.9L42.6,76.3C42.2,76.8 41.6,77.1 40.9,77.1L40.5,77.1L36.1,88.1C40.4,89.6 45.1,90.5 50,90.5C55,90.4 59.9,89.5 64.4,87.9ZM35.2,87.8L39.7,76.7C39.1,76.3 38.8,75.7 38.7,75L14.9,71.6C19.8,79 26.9,84.7 35.2,87.8ZM13.6,69.7L35,53.3C34.9,53.2 34.9,53.1 34.8,53L8,52C8.5,58.4 10.5,64.4 13.6,69.7ZM7.8,48.3L7.8,49.5L17.2,40.7C17,40.4 16.9,40 16.9,39.6C16.9,39.1 17.1,38.6 17.4,38.3L11.5,31.2C9.1,36.5 7.8,42.3 7.8,48.3ZM20.5,18.2L32.8,21.5C33.2,20.9 33.9,20.5 34.6,20.5C34.9,20.5 35.3,20.6 35.6,20.7L46.8,6.3C36.6,7.1 27.4,11.5 20.5,18.2ZM48,6.3L36.3,21.3C36.4,21.4 36.5,21.6 36.6,21.7L66.8,13.2C67,12.6 67.4,12.1 67.9,11.8L67,9.8C61.8,7.5 56,6.2 50,6.2C49.3,6.2 48.6,6.3 48,6.3ZM74.5,14.2L71,13.9C71,14.3 70.8,14.7 70.6,15L83.8,37.7C84.1,37.6 84.4,37.5 84.8,37.5L85.1,37.5L87.5,29.3C84.4,23.3 79.9,18.1 74.5,14.2ZM88,30.5L85.9,37.8C86.5,38.2 86.9,38.9 86.9,39.6C86.9,40.2 86.6,40.8 86.2,41.2L92,48.1C92,41.8 90.6,35.8 88,30.5Z" style="fill:rgb(221,90,68);fill-rule:nonzero;"/>
        </g>
    </g>
</svg>
